#!OML:ASF H:\GeneralSubjects\Female5\Project 1\Capture day 1\Session 1\Female5.ASF
:FULLY-SPECIFIED
:DEGREES
214
root -33.7297 16.151 -0.622177 -126.137 -91.1104 134.688
lowerback 9.25914 0.932838 1.54858
upperback -9.03185 0.905726 -3.0491
thorax -15.2138 -0.0682936 -4.47688
lowerneck -17.0303 1.18982 5.32588
upperneck 34.0662 -2.87013 4.77488
head 14.7261 -0.233749 0.444706
rclavicle -1.58034e-014 1.19271e-014
rhumerus -71.5468 7.5182 -88.7029
rradius 46.432
rwrist -16.3294
rhand -26.0062 -17.5318
rfingers 7.12502
rthumb 0.539712 -47.5109
lclavicle -1.58034e-014 1.19271e-014
lhumerus -42.1961 -25.416 88.1914
lradius 97.8025
lwrist 0.538611
lhand -35.4301 32.6864
lfingers 7.12502
lthumb -8.5599 62.4929
rfemur -35.592 5.12967 25.0103
rtibia 34.1673
rfoot -24.1897 -21.4961
rtoes 9.33212
lfemur 10.86 -14.0666 -36.9579
ltibia 11.7214
lfoot -15.2628 1.05215
ltoes -31.0198
215
root -34.5445 16.2923 -0.665957 -186.031 -90.6988 195.149
lowerback 7.98386 0.768386 0.667263
upperback -9.11192 0.475073 -3.36448
thorax -14.5362 -0.19311 -4.19804
lowerneck -16.8826 1.35007 5.75398
upperneck 35.1376 -2.89533 4.60058
head 15.1972 -0.214264 0.300469
rclavicle -3.18055e-015 1.19271e-014
rhumerus -72.6144 7.31801 -88.6601
rradius 45.1633
rwrist -17.0972
rhand -26.4648 -17.3477
rfingers 7.12502
rthumb 0.0968517 -47.3274
lclavicle -3.18055e-015 1.19271e-014
lhumerus -42.4041 -26.3679 88.5717
lradius 99.6406
lwrist 0.400927
lhand -35.5499 33.4807
lfingers 7.12502
lthumb -8.67549 63.2825
rfemur -33.9434 9.17989 22.342
rtibia 22.2529
rfoot -23.777 -26.9631
rtoes 14.0637
lfemur 12.7646 -13.1578 -37.7655
ltibia 11.2608
lfoot -13.6984 6.50295
ltoes -29.1918
216
root -35.3858 16.4205 -0.686016 -209.353 -91.1252 218.669
lowerback 6.87775 0.530875 0.684519
upperback -9.14095 0.108336 -3.64771
thorax -13.901 -0.383407 -4.4205
lowerneck -16.9807 1.50481 6.06913
upperneck 36.643 -3.02302 4.51584
head 15.9658 -0.229658 0.196996
rclavicle -1.04362e-014 1.03368e-014
rhumerus -73.7681 7.28692 -88.9482
rradius 43.9191
rwrist -18.7949
rhand -27.7269 -15.0726
rfingers 7.12502
rthumb -1.12216 -45.0494
lclavicle -1.04362e-014 1.03368e-014
lhumerus -43.324 -27.4061 89.0996
lradius 101.518
lwrist 0.704901
lhand -35.532 34.7507
lfingers 7.12502
lthumb -8.65815 64.5531
rfemur -31.3032 14.8499 19.1263
rtibia 9.99692
rfoot -31.5896 -28.7664
rtoes 28.9257
lfemur 14.9643 -12.0082 -38.182
ltibia 10.7562
lfoot -12.866 11.793
ltoes -29.7212
217
root -36.2001 16.5319 -0.707179 -221.544 -91.8138 230.944
lowerback 5.75105 0.317164 0.560287
upperback -8.81356 -0.220436 -4.01916
thorax -12.8399 -0.527779 -4.66421
lowerneck -16.9302 1.61856 6.53045
upperneck 37.0219 -2.96156 4.20031
head 16.1382 -0.184898 -0.00743616
rclavicle 1.30204e-014 -4.37326e-014
rhumerus -73.9801 7.3937 -89.1063
rradius 43.3626
rwrist -19.089
rhand -27.0099 -17.9669
rfingers 7.12502
rthumb -0.429632 -47.9462
lclavicle 1.30204e-014 -4.37326e-014
lhumerus -43.691 -28.2684 89.2979
lradius 103.457
lwrist 1.23502
lhand -34.9541 35.7703
lfingers 7.12502
lthumb -8.10048 65.5951
rfemur -29.5804 20.9379 15.014
rtibia 1.11801
rfoot -43.4292 -22.9891
rtoes 38.8023
lfemur 14.9342 -10.1949 -37.7967
ltibia 13.133
lfoot -11.2782 17.7013
ltoes -29.3168
218
root -37.0014 16.5989 -0.722913 -224.835 -92.6511 234.357
lowerback 5.07157 0.162996 0.378246
upperback -8.68619 -0.469291 -4.2623
thorax -12.2953 -0.636465 -4.77056
lowerneck -17.0822 1.52351 6.02851
upperneck 37.6275 -3.10521 4.3414
head 16.4926 -0.289952 0.118453
rclavicle -2.68359e-015 4.05521e-014
rhumerus -74.3907 7.88967 -89.4059
rradius 42.9863
rwrist -19.2631
rhand -26.7755 -16.2643
rfingers 7.12502
rthumb -0.203229 -46.244
lclavicle -2.68359e-015 4.05521e-014
lhumerus -44.6419 -28.7513 90.2434
lradius 105.386
lwrist 2.72459
lhand -35.1342 33.681
lfingers 7.12502
lthumb -8.27433 63.4989
rfemur -28.2329 20.1291 14.97
rtibia -3.55214
rfoot -40.4529 -22.6563
rtoes 41.7739
lfemur 14.1332 -8.51262 -37.4073
ltibia 17.0977
lfoot -10.3429 22.614
ltoes -29.2359
219
root -37.8046 16.613 -0.743889 -222.674 -93.2537 232.072
lowerback 4.94605 0.0150959 0.75131
upperback -8.74874 -0.688222 -4.66097
thorax -12.3314 -0.811547 -5.39098
lowerneck -17.3049 1.51527 6.22262
upperneck 38.7596 -3.28446 4.02014
head 17.1452 -0.371784 -0.0879815
rclavicle -3.77691e-015 3.18055e-015
rhumerus -75.0964 8.14253 -90.3179
rradius 42.7543
rwrist -18.4764
rhand -26.8009 -17.0817
rfingers 7.12502
rthumb -0.227752 -47.0614
lclavicle -3.77691e-015 3.18055e-015
lhumerus -45.9825 -29.4728 90.9269
lradius 106.583
lwrist 4.82478
lhand -36.1339 29.9019
lfingers 7.12502
lthumb -9.239 59.6795
rfemur -26.7418 19.4441 15.4887
rtibia -6.27598
rfoot -41.344 -26.5532
rtoes 39.0752
lfemur 12.8828 -6.85332 -36.6412
ltibia 22.8877
lfoot -10.3153 25.3543
ltoes -27.4699
220
root -38.6089 16.5633 -0.772038 -226.273 -94.0075 235.448
lowerback 4.67488 0.00842367 0.463518
upperback -8.73241 -0.7662 -4.95199
thorax -12.1578 -0.842176 -5.5321
lowerneck -16.9676 1.39008 6.10512
upperneck 38.8678 -3.24797 3.6129
head 17.0974 -0.441486 -0.244501
rclavicle 3.08116e-015 1.11319e-014
rhumerus -75.6021 8.67892 -90.9709
rradius 43.0355
rwrist -17.755
rhand -26.7701 -15.6661
rfingers 7.12502
rthumb -0.198015 -45.6457
lclavicle 3.08116e-015 1.11319e-014
lhumerus -47.0863 -30.1251 91.9262
lradius 106.949
lwrist 5.88665
lhand -38.3491 27.1446
lfingers 7.12502
lthumb -11.3759 56.8161
rfemur -26.2452 18.7644 15.4412
rtibia -4.2999
rfoot -29.5921 -32.8862
rtoes 32.6727
lfemur 11.0782 -5.1333 -36.1975
ltibia 29.7405
lfoot -12.6831 23.5247
ltoes -26.892
221
root -39.4107 16.4343 -0.785066 -217.06 -93.9845 225.324
lowerback 5.02434 -0.0631753 1.7779
upperback -8.53637 -0.707486 -5.04671
thorax -12.1717 -0.931843 -6.40163
lowerneck -16.7571 1.23122 5.89127
upperneck 39.0913 -3.37172 3.4562
head 17.1568 -0.55339 -0.302105
rclavicle 5.96354e-015 1.19271e-014
rhumerus -75.8514 9.56019 -92.0275
rradius 43.5456
rwrist -17.9299
rhand -26.3299 -16.1004
rfingers 7.12502
rthumb 0.227143 -46.08
lclavicle 5.96354e-015 1.19271e-014
lhumerus -48.445 -30.5185 92.9007
lradius 107.311
lwrist 6.38343
lhand -35.9511 31.3916
lfingers 7.12502
lthumb -9.06259 61.1769
rfemur -24.6677 18.1729 17.0111
rtibia -0.675995
rfoot -26.8896 -33.1284
rtoes 37.3389
lfemur 9.87611 -3.33559 -34.5412
ltibia 37.0081
lfoot -20.2078 18.8699
ltoes -24.1814
222
root -40.2051 16.2598 -0.802006 -219.417 -94.622 227
lowerback 5.24026 -0.0162514 1.85362
upperback -8.4977 -0.667008 -5.31384
thorax -12.267 -0.940379 -6.75489
lowerneck -16.2517 1.04807 5.52999
upperneck 39.162 -3.32371 3.06525
head 17.0456 -0.657343 -0.4049
rclavicle 6.36111e-015 -1.35174e-014
rhumerus -76.1452 10.9538 -93.3679
rradius 44.1608
rwrist -18.8835
rhand -26.0232 -16.5763
rfingers 7.12502
rthumb 0.523381 -46.5554
lclavicle 6.36111e-015 -1.35174e-014
lhumerus -50.2301 -30.5571 94.1526
lradius 106.88
lwrist 5.3495
lhand -35.4126 31.5169
lfingers 7.12502
lthumb -8.54299 61.3241
rfemur -23.9032 6.35551 21.7886
rtibia 5.74309
rfoot -0.867836 -23.8628
rtoes 29.9822
lfemur 7.94602 -1.32912 -33.7562
ltibia 44.0736
lfoot -27.0044 11.2745
ltoes -26.2161
223
root -40.9758 16.0079 -0.830189 -208.137 -94.3669 214.489
lowerback 6.48516 0.00742761 3.19427
upperback -8.29232 -0.391773 -5.01838
thorax -12.7814 -0.911584 -7.26871
lowerneck -16.1419 0.740178 4.4808
upperneck 39.0594 -3.40036 3.12824
head 16.961 -0.836065 -0.203586
rclavicle -7.95139e-015 5.24792e-014
rhumerus -75.4333 11.0336 -92.9843
rradius 44.5937
rwrist -17.9842
rhand -25.3994 -17.1682
rfingers 7.12502
rthumb 1.12585 -47.145
lclavicle -7.95139e-015 5.24792e-014
lhumerus -51.549 -30.1459 95.2502
lradius 105.921
lwrist 3.78262
lhand -34.9094 31.2355
lfingers 7.12502
lthumb -8.05737 61.0619
rfemur -22.4415 3.67861 24.428
rtibia 12.4535
rfoot -6.83219 -13.3511
rtoes 26.8635
lfemur 6.53741 0.348902 -31.4434
ltibia 49.8842
lfoot -31.618 8.89172
ltoes -24.6447
